<?xml version="1.0" encoding="UTF-8"?>
<svg id="Calque_2" data-name="Calque 2" xmlns="http://www.w3.org/2000/svg" viewBox="0 0 60.5 53.18">
  <defs>
    <style>
      .cls-1 {
        fill: #fefcff;
      }
    </style>
  </defs>
  <g id="william-icon">
    <g>
      <path class="cls-1" d="m60.25,26.59c0,3.83-3.33,7.3-8.73,9.81-.7.33-1.45.64-2.23.94-1.87.71-3.94,1.32-6.15,1.8-1.59.36-3.25.64-4.98.86-1.57.2-3.18.34-4.83.42h-.02c-.66.03-1.31.05-1.98.06-.36,0-.72.01-1.08.01s-.72,0-1.08-.01c-.67,0-1.33-.03-1.99-.06h-.01c-1.65-.08-3.27-.22-4.83-.42-.98-.12-1.94-.27-2.87-.43-.72-.13-1.42-.27-2.11-.43-2.22-.48-4.28-1.09-6.15-1.8C4.51,34.78.25,30.92.25,26.59c0-3.83,3.33-7.3,8.73-9.81.7-.33,1.45-.64,2.23-.94,1.87-.71,3.93-1.32,6.15-1.8.7-.16,1.41-.3,2.13-.43.48-.09.76.5.4.81-.74.65-1.42,1.38-2.02,2.16-.97,1.27-1.73,2.69-2.26,4.21-.05.14-.17.25-.32.3-.94.27-1.82.55-2.61.86-.72.28-1.38.58-1.97.9-2.03,1.09-3.2,2.37-3.2,3.74,0,1.76,1.94,3.38,5.16,4.64.63.25,1.32.48,2.05.7.54.17,1.12.32,1.71.47.31.08.63.15.96.22.51.12,1.05.23,1.59.33.16.03.31.05.47.08-.11-.15-.23-.32-.33-.47-1.31-2-2.07-4.38-2.07-6.93,0-1.86.41-3.63,1.14-5.23.15-.34.32-.67.5-.99,2.09-3.7,5.99-6.28,10.53-6.62.33-.03.68-.04,1.02-.04s.69.01,1.02.04c4.54.34,8.43,2.93,10.53,6.62.18.32.35.65.5.99.73,1.6,1.14,3.37,1.14,5.23,0,2.55-.76,4.93-2.07,6.93-.1.16-.21.32-.32.47.16-.02.31-.05.46-.08.55-.1,1.09-.21,1.6-.33.33-.07.65-.14.96-.22,1.39-.34,2.65-.74,3.76-1.17.72-.29,1.38-.58,1.97-.9,2.03-1.1,3.19-2.38,3.19-3.74,0-1.76-1.94-3.38-5.16-4.64-.63-.25-1.32-.48-2.05-.7-.18-.06-.36-.11-.56-.16-.15-.04-.26-.16-.32-.3-.53-1.52-1.3-2.94-2.26-4.21-.6-.78-1.27-1.51-2.01-2.16-.36-.32-.08-.9.39-.81h.02c.72.13,1.42.27,2.11.43,2.21.48,4.28,1.09,6.15,1.8,6.69,2.56,10.96,6.42,10.96,10.75Z"/>
      <path class="cls-1" d="m45.25,1.19c3.27,1.85,4.7,6.16,4.36,11.7-.02.3-.32.5-.62.41-1.67-.5-3.43-.94-5.28-1.31-.22-.04-.38-.23-.38-.46-.02-2.06-.57-3.55-1.72-4.19-1.14-.64-2.72-.37-4.56.64-.2.11-.45.07-.6-.09-1.25-1.38-2.53-2.66-3.8-3.81-.23-.21-.2-.57.05-.74,4.74-3.05,9.28-4.01,12.54-2.16Z"/>
      <path class="cls-1" d="m49.61,40.3c.33,5.54-1.09,9.85-4.36,11.69-3.84,2.17-9.4.48-15-3.91-1.57-1.23-3.14-2.66-4.68-4.29-.22-.23-.43-.47-.65-.71-.28-.31-.04-.81.39-.78.63.04,1.27.08,1.91.1,1,.04,2.01.06,3.03.06.96,0,1.91-.02,2.84-.05.13,0,.24.04.34.12.51.46,1,.88,1.49,1.25,2.73,2.1,5.13,2.93,6.68,2.05,1.14-.64,1.69-2.12,1.72-4.18,0-.22.16-.41.38-.46,1.85-.37,3.61-.81,5.28-1.31.29-.09.6.11.62.41Z"/>
      <path class="cls-1" d="m35.59,10.11c.29.32.04.81-.39.78-.63-.05-1.28-.08-1.92-.11-.05,0-.11,0-.17,0-.94-.04-1.89-.06-2.86-.06s-1.92.02-2.86.06c-.06,0-.12,0-.17,0-.56-.51-1.11-.98-1.65-1.38-2.73-2.1-5.13-2.93-6.68-2.06-1.14.65-1.7,2.13-1.71,4.19,0,.23-.16.42-.38.46-1.85.37-3.61.81-5.28,1.31-.3.09-.6-.12-.62-.41-.33-5.54,1.09-9.86,4.36-11.7,3.84-2.16,9.39-.48,15,3.91,1.57,1.23,3.14,2.67,4.68,4.3.22.23.44.47.66.71Z"/>
      <path class="cls-1" d="m33.28,10.78l-.02.02c-.05-.01-.1-.02-.16-.02.06,0,.12,0,.17,0Z"/>
      <path class="cls-1" d="m27.85,49.11c.23.2.2.57-.06.73-4.74,3.05-9.27,4.01-12.54,2.16-3.27-1.85-4.69-6.16-4.36-11.69.02-.3.32-.51.62-.41,1.67.5,3.43.94,5.28,1.31.22.05.38.24.38.46.02,2.06.58,3.54,1.71,4.18,1.14.65,2.73.37,4.57-.64.2-.11.45-.07.6.1,1.25,1.38,2.51,2.65,3.79,3.81Z"/>
      <path class="cls-1" d="m27.39,10.78c-.05,0-.1.01-.16.02l-.02-.02c.05,0,.11,0,.17,0Z"/>
    </g>
  </g>
</svg>