<?xml version="1.0" encoding="UTF-8"?>
<svg id="Calque_2" data-name="Calque 2" xmlns="http://www.w3.org/2000/svg" viewBox="0 0 53.35 60">
  <defs>
    <style>
      .cls-1 {
        fill: #fff;
      }

      .cls-2 {
        fill: #813084;
      }

      .cls-3 {
        fill: #6a1577;
      }

      .cls-4 {
        fill: #9a4993;
      }
    </style>
  </defs>
  <g id="Calque_15" data-name="Calque 15">
    <g>
      <path class="cls-4" d="m53.35,17.62c0-1-.21-1.91-.66-2.66-.43-.76-1.07-1.38-1.92-1.87-7.1-4.09-14.22-8.18-21.32-12.28-1.92-1.1-3.76-1.07-5.67.05C20.96,2.52,6.79,10.64,2.58,13.08c-1.74,1-2.58,2.55-2.58,4.55v24.72c0,.99.21,1.86.62,2.61.43.77,1.08,1.43,1.96,1.94,4.22,2.45,18.37,10.55,21.2,12.23,1.91,1.12,3.76,1.17,5.67.05,7.1-4.11,14.22-8.18,21.32-12.28.89-.51,1.53-1.15,1.96-1.94.41-.76.62-1.63.62-2.61v-24.74Z"/>
      <path class="cls-3" d="m26.74,29.9L.59,44.95c.43.77,1.08,1.43,1.96,1.94,4.22,2.45,18.37,10.55,21.2,12.23,1.91,1.12,3.76,1.17,5.67.05,7.1-4.11,14.22-8.18,21.32-12.28.89-.51,1.53-1.15,1.96-1.94l-25.95-15.05Z"/>
      <path class="cls-3" d="m19,34.35c1.53,2.66,4.39,4.45,7.66,4.45s6.18-1.81,7.69-4.5l-7.61-4.4-7.74,4.45Z"/>
      <path class="cls-2" d="m53.35,17.62c0-1-.21-1.91-.66-2.66l-25.95,14.94,25.98,15.05c.41-.76.62-1.63.62-2.61v-24.72Z"/>
      <g>
        <path class="cls-1" d="m34.35,34.3c-1.51,2.68-4.39,4.5-7.69,4.5s-6.15-1.79-7.66-4.45c-.74-1.3-1.17-2.78-1.17-4.37,0-4.88,3.94-8.83,8.83-8.83,3.25,0,6.1,1.78,7.63,4.4l7.71-4.44c-3.07-5.29-8.79-8.86-15.35-8.86-9.8,0-17.72,7.94-17.72,17.72,0,3.2.85,6.23,2.35,8.83,3.06,5.31,8.81,8.89,15.38,8.89s12.34-3.6,15.4-8.94l-7.71-4.45Zm9.75-8.51h-1.76v8.5h1.76v-8.5Zm3.9,0h-1.76v8.5h1.76v-8.5Z"/>
        <path class="cls-1" d="m49.42,27.22h-8.5v1.76h8.5v-1.76Zm0,3.88h-8.5v1.76h8.5v-1.76Z"/>
      </g>
    </g>
  </g>
</svg>