<?xml version="1.0" encoding="UTF-8"?>
<svg id="Calque_2" data-name="Calque 2" xmlns="http://www.w3.org/2000/svg" viewBox="0 0 44.24 60">
  <defs>
    <style>
      .cls-1 {
        fill: #f58219;
      }

      .cls-2 {
        fill: #4e7896;
      }
    </style>
  </defs>
  <g id="Calque_11" data-name="Calque 11">
    <g>
      <path class="cls-2" d="m14.3,46.39s-2.31,1.4,1.6,1.8c4.71.6,7.21.5,12.42-.5,1.05.64,2.15,1.18,3.31,1.6-11.72,5.01-26.55-.3-17.33-2.91h0Zm-1.5-6.51s-2.51,1.9,1.4,2.31c5.11.5,9.12.6,16.03-.8.67.68,1.5,1.2,2.4,1.5-14.13,4.21-29.96.4-19.84-3.01h0Zm27.65,11.42s1.7,1.4-1.9,2.51c-6.71,2.01-28.15,2.61-34.16,0-2.1-.9,1.9-2.2,3.19-2.4,1.3-.3,2.01-.3,2.01-.3-2.31-1.6-15.33,3.31-6.61,4.71,23.94,3.91,43.68-1.7,37.47-4.51h.01Zm-25.07-18.23s-10.92,2.61-3.91,3.51c3.01.4,8.92.3,14.43-.1,4.51-.4,9.02-1.2,9.02-1.2,0,0-1.6.7-2.71,1.4-11.12,2.91-32.46,1.6-26.35-1.4,5.21-2.51,9.52-2.2,9.52-2.2h0Zm19.54,10.92c11.22-5.81,6.01-11.42,2.4-10.72-.9.2-1.3.4-1.3.4,0,0,.3-.6,1-.8,7.11-2.51,12.72,7.51-2.31,11.42,0,0,.1-.1.2-.3h0Zm-18.43,15.83c10.82.7,27.35-.4,27.75-5.51,0,0-.8,2.01-8.92,3.51-9.22,1.7-20.64,1.5-27.35.4,0,0,1.4,1.2,8.52,1.6h0Z"/>
      <path class="cls-1" d="m28.13,0s6.21,6.31-5.91,15.83c-9.72,7.71-2.2,12.12,0,17.13-5.71-5.11-9.82-9.62-7.01-13.82,4.11-6.21,15.43-9.2,12.92-19.14Zm-3.19,28.75c2.91,3.31-.8,6.31-.8,6.31,0,0,7.41-3.81,4.01-8.52-3.11-4.51-5.51-6.71,7.51-14.23,0,0-20.54,5.11-10.72,16.43Z"/>
    </g>
  </g>
</svg>