<?xml version="1.0" encoding="UTF-8"?>
<svg id="Calque_2" data-name="Calque 2" xmlns="http://www.w3.org/2000/svg" viewBox="0 0 60 60">
  <defs>
    <style>
      .cls-1 {
        fill: #fff;
        fill-rule: evenodd;
      }

      .cls-2 {
        fill: #3178c6;
      }
    </style>
  </defs>
  <g id="Calque_20" data-name="Calque 20">
    <g>
      <rect class="cls-2" width="60" height="60"/>
      <path class="cls-1" d="m37.14,47.75v5.87c.95.49,2.08.86,3.38,1.1s2.67.37,4.12.37,2.74-.13,4.01-.4c1.27-.27,2.38-.71,3.33-1.33.95-.62,1.71-1.42,2.27-2.42s.83-2.23.83-3.69c0-1.06-.16-2-.48-2.8s-.78-1.51-1.38-2.14c-.6-.62-1.32-1.18-2.15-1.68s-1.78-.96-2.83-1.4c-.77-.32-1.46-.63-2.07-.93-.61-.3-1.13-.61-1.56-.92-.43-.31-.76-.64-.99-.99-.23-.35-.35-.74-.35-1.18,0-.4.1-.77.31-1.09s.5-.6.88-.83c.38-.23.84-.41,1.39-.54.55-.13,1.16-.19,1.83-.19.49,0,1.01.04,1.55.11.54.07,1.09.19,1.64.34.55.15,1.09.35,1.6.58.52.23,1,.5,1.44.81v-5.48c-.89-.34-1.87-.6-2.93-.76s-2.27-.25-3.64-.25-2.71.15-3.96.45-2.34.77-3.29,1.4c-.95.64-1.7,1.45-2.25,2.43-.55.98-.83,2.16-.83,3.53,0,1.75.5,3.24,1.51,4.47,1.01,1.23,2.54,2.28,4.59,3.13.81.33,1.56.65,2.26.97s1.3.65,1.81.99c.51.34.91.71,1.2,1.12.29.4.44.86.44,1.37,0,.38-.09.73-.28,1.05s-.46.6-.83.84-.84.42-1.39.56c-.56.13-1.21.2-1.95.2-1.27,0-2.53-.22-3.78-.67-1.25-.45-2.4-1.12-3.47-2.01h0Zm-9.86-14.45h7.53v-4.81H13.83v4.81h7.49v21.44h5.96v-21.44Z"/>
    </g>
  </g>
</svg>