<?xml version="1.0" encoding="UTF-8"?>
<svg id="Calque_2" data-name="Calque 2" xmlns="http://www.w3.org/2000/svg" viewBox="0 0 60 48.73">
  <defs>
    <style>
      .cls-1 {
        fill: #fff;
      }

      .cls-2 {
        fill: #265787;
      }

      .cls-3 {
        fill: #ea7600;
      }
    </style>
  </defs>
  <g id="Calque_17" data-name="Calque 17">
    <g>
      <path class="cls-1" d="m22.47,27.69c.22-3.89,2.12-7.33,5-9.76,2.82-2.39,6.61-3.85,10.77-3.85s7.93,1.46,10.75,3.85c2.88,2.43,4.78,5.87,5,9.76.22,3.99-1.39,7.72-4.2,10.48-2.88,2.8-6.96,4.57-11.55,4.57s-8.69-1.76-11.55-4.57c-2.82-2.76-4.43-6.47-4.2-10.46l-.02-.02Z"/>
      <g>
        <path class="cls-2" d="m31.09,27.21c.11-2,1.09-3.77,2.57-5.02,1.45-1.23,3.4-1.98,5.53-1.98s4.07.75,5.52,1.98c1.48,1.25,2.45,3.02,2.57,5.02.11,2.05-.71,3.97-2.16,5.39-1.48,1.44-3.58,2.35-5.94,2.35s-4.47-.9-5.94-2.35c-1.45-1.42-2.27-3.32-2.16-5.38h-.01Z"/>
        <path class="cls-3" d="m18.4,31.44c.01.78.26,2.31.64,3.49.79,2.52,2.13,4.85,3.98,6.89,1.9,2.11,4.25,3.8,6.96,5,2.85,1.26,5.94,1.9,9.14,1.9,3.21,0,6.3-.66,9.14-1.94,2.71-1.22,5.06-2.91,6.96-5.03,1.86-2.06,3.2-4.39,3.98-6.91.4-1.27.65-2.56.75-3.85.1-1.27.06-2.55-.12-3.83-.35-2.49-1.22-4.82-2.54-6.94-1.21-1.96-2.77-3.66-4.63-5.1h0S33.93.74,33.93.74c-.02-.01-.03-.03-.05-.04-1.23-.94-3.3-.94-4.65,0-1.36.96-1.52,2.54-.31,3.53h0s7.82,6.36,7.82,6.36l-23.81.03h-.03c-1.97,0-3.86,1.29-4.23,2.93-.39,1.66.95,3.05,3.01,3.05h0s12.06-.02,12.06-.02L2.15,33.1s-.06.04-.08.06c-2.03,1.56-2.69,4.15-1.41,5.78,1.3,1.66,4.06,1.67,6.12,0l11.75-9.63s-.17,1.3-.16,2.07l.04.05Zm30.26,4.35c-2.42,2.47-5.82,3.87-9.48,3.87-3.67,0-7.07-1.38-9.49-3.84-1.19-1.21-2.05-2.58-2.59-4.05-.53-1.45-.73-2.98-.59-4.53.13-1.51.58-2.96,1.3-4.26.71-1.28,1.68-2.44,2.88-3.43,2.36-1.92,5.35-2.96,8.49-2.96,3.14,0,6.14,1.03,8.5,2.94,1.2.98,2.17,2.14,2.88,3.42.72,1.3,1.17,2.74,1.3,4.26.13,1.54-.07,3.08-.6,4.53-.54,1.48-1.41,2.86-2.59,4.06h0Z"/>
      </g>
    </g>
  </g>
</svg>