<?xml version="1.0" encoding="UTF-8"?>
<svg id="Calque_2" data-name="Calque 2" xmlns="http://www.w3.org/2000/svg" viewBox="0 0 60 58.5">
  <defs>
    <style>
      .cls-1 {
        fill: #ff9a00;
      }

      .cls-2 {
        fill: #300;
      }
    </style>
  </defs>
  <g id="Calque_1-2" data-name="Calque 1">
    <g>
      <path class="cls-2" d="m10.62,0h38.75c5.88,0,10.62,4.75,10.62,10.62v37.25c0,5.87-4.75,10.62-10.62,10.62H10.62c-5.87,0-10.62-4.75-10.62-10.62V10.62C0,4.75,4.75,0,10.62,0Z"/>
      <path class="cls-1" d="m29,35h-9.3l-1.9,5.88c-.05.22-.25.38-.48.35h-4.7c-.27,0-.35-.15-.27-.45l8.05-23.17c.08-.25.15-.52.25-.83.1-.52.15-1.07.15-1.62-.02-.13.08-.25.2-.27h6.48c.2,0,.3.07.33.2l9.12,25.75c.08.28,0,.4-.25.4h-5.23c-.17.03-.35-.1-.4-.28l-2.05-5.95Zm-7.85-5.08h6.35c-.15-.52-.35-1.15-.58-1.8-.23-.67-.45-1.4-.67-2.15-.25-.77-.48-1.52-.73-2.3s-.48-1.5-.67-2.23c-.2-.7-.37-1.35-.55-1.95h-.05c-.23,1.08-.5,2.15-.85,3.23-.38,1.2-.75,2.45-1.15,3.7-.35,1.27-.73,2.45-1.1,3.5Zm21.35-10.67c-.83.02-1.62-.3-2.22-.88-.58-.62-.88-1.45-.85-2.3-.03-.85.3-1.65.9-2.23s1.4-.88,2.22-.88c.97,0,1.72.3,2.28.88.55.6.85,1.4.83,2.23.03.85-.28,1.67-.88,2.3-.58.6-1.42.92-2.28.88h0Zm-2.8,21.7v-19.25c0-.25.1-.35.33-.35h4.95c.22,0,.33.13.33.35v19.25c0,.28-.1.4-.33.4h-4.9c-.25,0-.38-.15-.38-.4Z"/>
    </g>
  </g>
</svg>