<?xml version="1.0" standalone="no"?>
<!DOCTYPE svg PUBLIC "-//W3C//DTD SVG 20010904//EN"
 "http://www.w3.org/TR/2001/REC-SVG-20010904/DTD/svg10.dtd">
<svg version="1.0" xmlns="http://www.w3.org/2000/svg"
 width="259.000000pt" height="294.000000pt" viewBox="0 0 259.000000 294.000000"
 preserveAspectRatio="xMidYMid meet">

<g transform="translate(0.000000,294.000000) scale(0.100000,-0.100000)"
fill="#000000" stroke="none">
<path d="M1174 2838 c-330 -382 -474 -632 -514 -894 -22 -139 -16 -134 -90
-78 -85 64 -187 193 -246 310 -26 52 -51 94 -55 94 -12 0 -244 -91 -252 -99
-14 -14 120 -372 208 -556 97 -203 245 -392 388 -494 26 -19 47 -38 47 -41 0
-12 -113 -59 -186 -77 -50 -12 -114 -17 -229 -18 l-159 -1 -21 -137 c-19 -122
-19 -137 -6 -141 9 -3 52 -12 96 -20 455 -87 698 -97 939 -35 66 17 104 30
215 76 12 5 13 -6 8 -63 -12 -122 -65 -257 -157 -397 -27 -43 -50 -79 -50 -81
0 -1 50 -42 111 -91 l111 -88 21 26 c283 334 369 450 451 608 67 128 111 259
127 377 7 48 15 91 19 95 10 12 124 -77 173 -136 62 -73 98 -129 146 -224 23
-46 45 -83 49 -83 4 0 54 19 112 41 58 23 115 45 127 50 l22 8 -38 113 c-83
246 -192 493 -274 621 -80 125 -205 257 -321 340 -27 20 -16 31 59 61 103 41
230 59 372 53 l122 -5 6 32 c15 90 35 223 35 237 0 17 -23 23 -270 64 -424 70
-681 58 -930 -45 l-70 -29 0 43 c0 106 72 294 164 430 38 56 44 72 34 82 -23
23 -203 164 -208 164 -3 0 -42 -42 -86 -92z m278 -1010 c283 -130 311 -521 50
-686 -234 -149 -541 -11 -592 266 -33 185 86 377 273 438 68 22 200 13 269
-18z"/>
</g>
</svg>
