<?xml version="1.0" encoding="UTF-8"?>
<svg id="Calque_2" data-name="Calque 2" xmlns="http://www.w3.org/2000/svg" viewBox="0 0 60 58.5">
  <defs>
    <style>
      .cls-1 {
        fill: #001e36;
      }

      .cls-2 {
        fill: #31a8ff;
      }
    </style>
  </defs>
  <g id="Calque_2-2" data-name="Calque 2">
    <g id="Layer_2" data-name="Layer 2">
      <g id="Surfaces">
        <g id="Photo_Surface" data-name="Photo Surface">
          <g id="Outline_no_shadow" data-name="Outline no shadow">
            <path class="cls-1" d="m10.62,0h38.75c5.88,0,10.62,4.75,10.62,10.62v37.25c0,5.87-4.75,10.62-10.62,10.62H10.62c-5.88,0-10.62-4.75-10.62-10.62V10.62C0,4.75,4.75,0,10.62,0Z"/>
          </g>
        </g>
      </g>
      <g id="Outlined_Mnemonics_Logos" data-name="Outlined Mnemonics Logos">
        <g id="Ps">
          <path class="cls-2" d="m13.5,41.03V15.3c0-.18.07-.27.25-.27.43,0,.82,0,1.4-.02.6-.02,1.23-.02,1.9-.05.67-.02,1.4-.02,2.17-.05.77-.02,1.52-.02,2.27-.02,2.05,0,3.75.25,5.15.77,1.25.43,2.4,1.13,3.35,2.05.8.8,1.42,1.77,1.83,2.85.37,1.05.57,2.12.57,3.25,0,2.15-.5,3.92-1.5,5.32s-2.4,2.45-4.02,3.05c-1.7.62-3.58.85-5.62.85-.6,0-1,0-1.25-.03s-.6-.03-1.08-.03v8.02c.02.17-.1.33-.27.35h-4.85c-.2,0-.3-.1-.3-.32Zm5.45-21.18v8.4c.35.02.67.05.98.05h1.32c.98,0,1.95-.15,2.88-.45.8-.23,1.5-.7,2.05-1.33.52-.62.77-1.48.77-2.58.02-.77-.17-1.55-.58-2.23-.42-.65-1.02-1.15-1.75-1.42-.92-.38-1.92-.52-2.95-.5-.65,0-1.23,0-1.7.02-.5-.02-.85,0-1.02.03h0Z"/>
          <path class="cls-2" d="m48,26.73c-.75-.4-1.55-.67-2.4-.85-.92-.2-1.85-.33-2.8-.33-.5-.02-1.03.05-1.5.17-.33.08-.6.25-.78.5-.12.2-.2.45-.2.67s.1.45.25.65c.22.27.53.5.85.67.58.3,1.17.58,1.78.83,1.35.45,2.65,1.08,3.85,1.83.83.52,1.5,1.23,1.97,2.07.4.8.6,1.67.58,2.58.03,1.17-.33,2.35-.97,3.33-.7,1-1.67,1.78-2.8,2.22-1.22.53-2.72.8-4.53.8-1.15,0-2.28-.1-3.4-.33-.87-.15-1.75-.42-2.55-.8-.17-.1-.3-.28-.28-.47v-4.35c0-.08.03-.17.1-.22.08-.05.15-.03.22.03.97.58,2,.97,3.1,1.22.95.25,1.95.38,2.95.38s1.62-.12,2.08-.35c.4-.17.67-.6.67-1.05,0-.35-.2-.67-.6-1-.4-.33-1.22-.7-2.45-1.17-1.28-.45-2.45-1.05-3.55-1.8-.78-.55-1.42-1.27-1.9-2.12-.4-.8-.6-1.67-.58-2.55,0-1.08.3-2.1.85-3.02.62-1,1.55-1.8,2.62-2.3,1.17-.6,2.65-.88,4.42-.88,1.03,0,2.08.08,3.1.23.75.1,1.47.3,2.15.58.1.02.2.13.25.23.03.1.05.2.05.3v4.07c0,.1-.05.2-.12.25-.22.05-.35.05-.45,0Z"/>
        </g>
      </g>
    </g>
  </g>
</svg>