<?xml version="1.0" encoding="UTF-8"?>
<svg id="Calque_2" data-name="Calque 2" xmlns="http://www.w3.org/2000/svg" viewBox="0 0 60 60">
  <defs>
    <style>
      .cls-1 {
        fill: #fff;
      }

      .cls-2 {
        fill: #512bd4;
      }
    </style>
  </defs>
  <g id="Calque_10" data-name="Calque 10">
    <g>
      <rect class="cls-2" width="60" height="60"/>
      <path class="cls-1" d="m10.69,38.33c-.42,0-.78-.14-1.08-.42-.3-.29-.45-.63-.45-1.03s.15-.75.45-1.04c.3-.29.66-.43,1.08-.43s.8.14,1.09.43c.3.29.46.64.46,1.04s-.15.74-.46,1.03c-.3.28-.66.42-1.09.42Z"/>
      <path class="cls-1" d="m27.65,38.09h-2.76l-7.27-11.46c-.18-.29-.34-.59-.46-.9h-.06c.06.33.08,1.05.08,2.14v10.22h-2.44v-15.59h2.94l7.02,11.19c.3.46.49.78.57.96h.04c-.07-.41-.11-1.11-.11-2.1v-10.05h2.43v15.59Z"/>
      <path class="cls-1" d="m39.53,38.09h-8.54v-15.59h8.2v2.2h-5.67v4.41h5.23v2.19h-5.23v4.61h6.01v2.19Z"/>
      <path class="cls-1" d="m51.67,24.7h-4.37v13.4h-2.52v-13.4h-4.36v-2.2h11.25v2.2Z"/>
    </g>
  </g>
</svg>