<?xml version="1.0" encoding="UTF-8"?>
<svg id="Calque_2" data-name="Calque 2" xmlns="http://www.w3.org/2000/svg" viewBox="0 0 58.28 60">
  <defs>
    <style>
      .cls-1 {
        fill: #ff2d20;
        fill-rule: evenodd;
      }
    </style>
  </defs>
  <g id="Calque_7" data-name="Calque 7">
    <path class="cls-1" d="m58.25,13.57c.02.08.03.16.03.25v12.88c0,.34-.18.65-.47.81l-10.81,6.22v12.34c0,.34-.18.65-.47.81l-22.56,12.99c-.05.03-.11.05-.16.07-.02,0-.04.02-.06.03-.16.04-.32.04-.48,0-.03,0-.05-.02-.07-.03-.05-.02-.11-.04-.15-.06L.47,46.89c-.29-.17-.47-.48-.47-.81V7.43c0-.08.01-.17.03-.25,0-.03.02-.05.03-.08.02-.05.03-.1.06-.15.02-.03.04-.06.06-.08.03-.04.05-.08.08-.11.03-.03.06-.05.09-.07.03-.03.06-.06.1-.08h0L11.75.13c.29-.17.65-.17.94,0l11.28,6.49h0s.07.05.1.08c.03.02.06.04.09.07.03.03.06.07.08.11.02.03.05.05.06.08.03.05.04.1.06.15,0,.03.03.05.03.08.02.08.03.16.03.25v24.13l9.4-5.41v-12.34c0-.08.01-.17.03-.24,0-.03.02-.05.03-.08.02-.05.04-.1.06-.15.02-.03.04-.06.06-.08.03-.04.05-.08.08-.11.03-.03.06-.05.09-.07.04-.03.07-.06.1-.08h0l11.28-6.49c.29-.17.65-.17.94,0l11.28,6.49s.07.05.11.08c.03.02.06.04.09.07.03.03.06.07.08.11.02.03.05.05.06.08.03.05.04.1.06.15.01.03.03.05.03.08Zm-1.85,12.58v-10.71l-3.95,2.27-5.45,3.14v10.71l9.4-5.41h0Zm-11.28,19.37v-10.72l-5.36,3.06-15.32,8.74v10.82s20.68-11.91,20.68-11.91ZM1.88,9.06v36.47l20.68,11.91v-10.82l-10.8-6.11h0s0,0,0,0c-.04-.02-.07-.05-.1-.08-.03-.02-.06-.04-.09-.07h0s-.05-.07-.08-.1c-.02-.03-.05-.06-.07-.09h0s-.03-.08-.05-.12c-.02-.04-.04-.07-.04-.11h0s-.01-.09-.02-.14c0-.04-.01-.07-.01-.11h0V14.47l-5.45-3.14-3.95-2.27h0ZM12.22,2.02L2.82,7.43l9.4,5.41,9.4-5.41L12.22,2.02h0Zm4.89,33.76l5.45-3.14V9.06l-3.95,2.27-5.45,3.14v23.59s3.95-2.27,3.95-2.27Zm28.95-27.38l-9.4,5.41,9.4,5.41,9.4-5.41s-9.4-5.41-9.4-5.41Zm-.94,12.45l-5.45-3.14-3.95-2.27v10.71l5.45,3.14,3.95,2.27s0-10.71,0-10.71Zm-21.62,24.13l13.78-7.87,6.89-3.93-9.39-5.41-10.81,6.22-9.85,5.67s9.38,5.31,9.38,5.31Z"/>
  </g>
</svg>