<?xml version="1.0" encoding="UTF-8"?>
<svg id="Calque_2" data-name="Calque 2" xmlns="http://www.w3.org/2000/svg" viewBox="0 0 60 52">
  <defs>
    <style>
      .cls-1, .cls-2 {
        fill: #53c1de;
      }

      .cls-2 {
        fill-rule: evenodd;
      }
    </style>
  </defs>
  <g id="Calque_9" data-name="Calque 9">
    <g>
      <path class="cls-1" d="m35.36,25.95c0-2.87-2.4-5.19-5.36-5.19s-5.36,2.33-5.36,5.19,2.4,5.2,5.36,5.2,5.36-2.33,5.36-5.2Z"/>
      <path class="cls-2" d="m47.4,16.31c1.13-4.46,2.55-12.72-2.46-15.53-4.99-2.79-11.48,2.56-14.91,5.77C26.61,3.37,19.93-1.96,14.92.86c-4.99,2.8-3.45,10.93-2.29,15.42C7.98,17.55,0,20.31,0,25.95s7.97,8.63,12.59,9.91c-1.16,4.51-2.62,12.52,2.37,15.32,5.03,2.81,11.68-2.39,15.14-5.63,3.45,3.23,9.88,8.46,14.87,5.66,5.01-2.81,3.7-10.97,2.55-15.48,4.48-1.28,12.47-4.22,12.47-9.77s-8.02-8.37-12.6-9.64Zm-.57,17.03c-.76-2.33-1.78-4.81-3.04-7.37,1.2-2.5,2.18-4.95,2.92-7.26,3.36.94,10.72,3.1,10.72,7.25s-7.07,6.37-10.6,7.38Zm-3.13,15.72c-3.72,2.09-9.26-2.91-11.8-5.29,1.69-1.79,3.38-3.88,5.03-6.19,2.9-.25,5.64-.66,8.13-1.21.81,3.19,2.39,10.6-1.35,12.7Zm-27.45-.03c-3.72-2.08-2.02-9.23-1.17-12.56,2.46.53,5.18.91,8.09,1.14,1.66,2.26,3.4,4.35,5.15,6.17-2.16,2.03-8.33,7.34-12.07,5.25ZM2.56,25.95c0-4.2,7.32-6.35,10.76-7.29.75,2.37,1.74,4.84,2.92,7.35-1.2,2.54-2.2,5.06-2.96,7.45-3.27-.91-10.72-3.31-10.72-7.51ZM16.21,3.01c3.74-2.1,9.54,3.01,12.02,5.31-1.74,1.81-3.47,3.88-5.11,6.13-2.82.25-5.52.66-8.01,1.21-.93-3.62-2.64-10.56,1.09-12.65Zm22.55,14.15c1.91.23,3.75.55,5.47.93-.52,1.61-1.16,3.29-1.92,5.01-1.1-2.02-2.28-4.01-3.55-5.94Zm-8.73-7.06c1.18,1.24,2.37,2.63,3.53,4.13-2.36-.11-4.73-.11-7.09,0,1.17-1.49,2.36-2.88,3.56-4.13Zm-12.32,12.99c-.75-1.72-1.39-3.4-1.91-5.03,1.71-.37,3.54-.68,5.44-.91-1.27,1.92-2.45,3.91-3.53,5.94Zm3.59,11.84c-1.96-.21-3.82-.5-5.53-.86.53-1.66,1.18-3.38,1.94-5.14,1.1,2.05,2.29,4.05,3.58,6Zm8.8,7.05c-1.21-1.27-2.43-2.68-3.61-4.19,2.38.09,4.76.09,7.13-.01-1.17,1.54-2.35,2.95-3.52,4.2Zm12.23-13.14c.8,1.77,1.48,3.49,2.01,5.12-1.74.39-3.62.69-5.6.93,1.28-1.97,2.48-3.98,3.58-6.04Zm-6.84,6.34c-3.63.25-7.29.25-10.93.02-2.07-2.93-3.9-6-5.49-9.2,1.58-3.19,3.41-6.26,5.46-9.18,3.64-.27,7.3-.27,10.94,0,2.04,2.92,3.86,5.98,5.48,9.14-1.6,3.19-3.43,6.26-5.46,9.21ZM43.66,2.93c3.74,2.09,2.08,9.52,1.26,12.75-2.49-.56-5.19-.97-8.02-1.23-1.65-2.28-3.36-4.35-5.07-6.14,2.51-2.35,8.13-7.46,11.84-5.39Z"/>
    </g>
  </g>
</svg>