<?xml version="1.0" encoding="UTF-8"?>
<svg id="Calque_2" data-name="Calque 2" xmlns="http://www.w3.org/2000/svg" viewBox="0 0 1920 580.81">
  <defs>
    <style>
      .cls-1 {
        fill: #009036;
      }
    </style>
  </defs>
  <g id="Calque_1-2" data-name="Calque 1">
    <path class="cls-1" d="m476.78,18.3C468.92,6.49,458.51-.03,446.54,0c-18.18.07-38.97,14.44-61.02,44.28-37.23,50.55-78.35,146.15-125.26,257.47-18.55-31.98-61.8-78.44-123.51-78.5-15.23,0-31.51,2.84-48.73,9.43C22.06,257.9-.02,318.86,0,359.87,0,429.62,52.83,487.35,116.35,488.63c.68.02,1.37.02,2.04.02,37.8,0,64.51-20.65,81.6-41.09,12.36-14.76,19.82-29.48,23.03-36.59,25.64,62.29,52.77,112.73,71.76,136.62,17.12,21.45,35.49,33.19,53.65,33.22h.02c17.17,0,33.52-10.69,47.4-32.25,37.64-58.29,63.66-146.29,82.46-230.81,11.08-49.99,18.6-120.05,18.6-181.5,0-24.3-1.18-47.26-3.78-67.08-2.92-21.96-8.48-39.06-16.36-50.88ZM212.28,403.58c-8.65,16.98-30.41,51.65-64.02,59-3.93.87-8.13,1.31-12.52,1.31-30.17-.02-67.65-20.98-75.63-64.35-.99-5.36-1.49-10.89-1.49-16.46.04-31.3,15.91-63.68,53.23-75.59,6.11-1.94,12.08-2.87,17.9-2.87,35.63-.13,67.09,35.32,86.57,90.41-.55,1.28-1.89,4.35-4.06,8.55Zm222.57-32.57c-18.65,27.8-42.29,40.74-62.48,40.72-1.31,0-2.61-.06-3.92-.16-49.51-3.95-85.84-70.02-100.05-95.8,9.36-22.78,25.1-59.88,46.72-92.6,21.88-33.17,49.8-61.63,82.69-66.57,2.83-.44,5.61-.64,8.28-.64,19.19,0,34.29,10.64,44.79,26.81,10.49,16.16,16.17,37.8,16.17,59.08,0,58.81-13.59,101.37-32.2,129.15Zm263.78-58.11l13.61,4.49c3.88,1.5,6.26,4.48,6.26,9.56,0,2.69-.59,5.66-1.78,9.26l-38.57,98.02-41.85-131.49h-58.88c-1.19,3.58-.47,8.84.24,11.64,14.02,4.83,18.62,3.68,23.58,16.69l50.62,142.88,29.88-8.65,52.02-124.32c5.38-13.72,11.05-25.08,16.12-30.77.33-1.19.33-6.29.33-7.47h-51.27c-.88,3.59-.88,6.29-.32,10.17Zm393.26,130.89l-1.52-59.17v-68.44c0-11.67-7.47-16.73-19.1-16.73-14.34,0-31.71,3.87-46.33,8.05v11.96h24.79v64.86l-.9,44.84c-9.27,4.17-21.48,9.85-38.88,9.85-19.9,0-22.67-14.49-22.97-31.83v-91.28c0-11.38-6.58-16.45-18.82-16.45-14.05,0-31.09,3.58-47.53,8.05v11.96h25.42v93.83c0,28.08,3.26,55.3,47.52,55.3,23.31,0,40.34-13.12,55.59-28.08.31,17.33,8.66,27.47,24.51,27.47,19.71,0,34.05-9.22,44.83-15.83l-.9-8.36h-25.69Zm192.32,0l-1.21-61.26v-159.89c0-11.96-4.21-14.95-15.54-14.95-14.06,0-36.47,2.99-52.62,6.3v14.05h27.5v74.99c-7.18-1.2-14.34-2.08-25.71-2.08-46.91,0-84.29,34.64-84.29,89.64,0,62.76,32.29,78,64.57,78,20.32,0,34.97-11.64,45.12-23,0,11.05,3.9,23,19.1,23,22.13,0,37.09-7.47,49.95-14.62l-2.1-10.17h-24.78Zm-41.87-61.57l-.89,50.51c-7.45,2.41-16.73,6.26-27.5,6.26-22.69,0-38.53-17.02-38.53-54.67,0-43.94,11.37-65.15,42.13-65.15,11.67,0,18.55,2.71,24.8,4.79v58.26h0Zm160.02-83.08c-45.73,0-81.9,44.23-81.9,87.87,0,56.78,29.9,81.57,79.21,81.57s82.78-44.22,82.78-87.55c0-55.87-26.91-81.89-80.09-81.89Zm2.07,150.34c-32.28,0-40.61-32.89-40.61-68.15,0-32.26,8.05-63.66,36.14-63.66,31.73,0,38.56,31.68,38.56,69.34,0,31.07-5.36,62.47-34.08,62.47Zm165.3-10.19l-.6-54.98v-71.72c0-10.46-4.79-13.14-14.05-13.14-14.34,0-37.96,2.99-54.11,6.58v13.73h27.49v64.55l-.88,52.89c0,6.58-2.69,11.65-8.06,13.46l-18.24,5.68c0,3.88.6,5.68,1.19,9.56h92.65c1.5-3.88,1.81-7.46,1.81-10.46l-22.13-5.37c-3.28-.89-5.08-2.99-5.08-10.78Zm350.26-62.74c0-42.44-20.32-77.99-67.25-77.99-49.62,0-83.47,43.23-83.47,90.46s29.69,79.56,83.77,79.56c27.81,0,52-11.63,64.85-26.89l-4.46-10.14c-17.94,4.17-34.37,6.14-45.46,6.14-31.38,0-53.47-13.33-56.16-53.98h108.18v-7.16h0Zm-108.47-8.97c.88-35.26,15.25-51.39,34.37-51.39,22.07,0,30.47,21.2,30.47,51.39h-64.85Zm-263.3-103.71c13.31,0,24.03-10.77,24.03-24.06s-10.72-24.06-24.03-24.06-24.09,10.77-24.09,24.06,10.81,24.06,24.09,24.06Zm105.54,71.13c0-11.64,8.97-19.13,25.08-19.13,29.35,0,35.81,16.14,39.98,34.37l9.88.88,5.07-39.73c-17.61-8.98-32.68-12.54-51.93-12.54-33.45,0-63.04,20-63.04,51.1,0,55.87,84.34,51.98,84.34,79.78,0,13.73-11.43,21.52-27.89,21.52-23.18,0-38.37-16.14-42.25-39.44l-11.64-.3-2.68,44.23c17.9,8.05,34.93,12.81,56,12.81,30.78,0,68.22-14.6,68.22-53.75,0-51.7-89.13-47.81-89.13-79.8Zm-761.2,108.79l-2.08-59.76v-38.57c0-40.92-34.38-46.31-58.9-46.31s-51.42,13.45-63.64,22.13l4.49,11.65c15.53-4.19,30.17-6.26,40.94-6.26,24.5,0,36.77,7.74,36.77,28.05v19.53l-26.33,2.99c-32.25,3.88-67.53,14.01-67.53,53.33,0,20.92,15.57,38.03,40.65,38.03s43.03-14.94,53.77-28.1c1.2,17.35,6.91,27.8,28.73,27.8,11.64,0,29.88-7.77,39.13-16.43l-1.18-8.07h-24.82Zm-42.42-12.25c-9.59,4.47-20.04,8.37-32.58,8.37s-20.33-8.35-20.33-21.01c0-16.12,15.52-24.94,34.35-27.9l18.56-3.3v43.85Z"/>
  </g>
</svg>