<?xml version="1.0" encoding="UTF-8"?>
<svg id="Calque_2" data-name="Calque 2" xmlns="http://www.w3.org/2000/svg" viewBox="0 0 44.96 60">
  <defs>
    <style>
      .cls-1 {
        fill: #00bcf2;
      }
    </style>
  </defs>
  <g id="Calque_4" data-name="Calque 4">
    <path class="cls-1" d="m18.91,59.96c-5.62-.4-11.17-1.82-14.57-3.71-1.94-1.08-3.42-2.4-4-3.58l-.34-.7V7.89l.27-.55C1.49,4.86,5.39,2.63,10.82,1.29c1.84-.45,4.51-.91,6.68-1.14,2.22-.23,8.1-.2,10.31.06,5.88.69,10.89,2.24,13.97,4.32,1.19.8,2.41,2.09,2.82,2.97l.35.76-.03,21.97-.03,21.97-.28.58c-.16.32-.63.94-1.05,1.39-2.56,2.72-8.06,4.73-15.28,5.59-1.47.17-7.86.32-9.37.21h0Zm10.35-18.88c-.02-.06-.86-.8-1.87-1.66s-1.87-1.6-1.92-1.65.13-.22.41-.39c.28-.16.82-.62,1.19-1.01,1.1-1.15,1.62-2.57,1.62-4.43s-.56-3.31-1.68-4.44c-1.13-1.14-2.42-1.63-4.31-1.63-2.91,0-5.14,1.7-5.85,4.44-.25.95-.24,2.86,0,3.69.64,2.19,2.39,3.78,4.57,4.15.74.13.84.18,1.34.73.3.33.91.98,1.36,1.45l.82.85h2.18c1.2,0,2.16-.05,2.14-.1h0Zm-7.46-6.09c-.52-.27-.72-.49-1.02-1.09-.23-.47-.27-.74-.27-1.84,0-1.13.03-1.37.27-1.86.39-.8.94-1.18,1.78-1.24,1.17-.08,1.84.49,2.2,1.87.43,1.69-.04,3.49-1.08,4.09-.55.31-1.36.35-1.87.08h0Zm-9.65,3.14c2.28-.43,3.58-1.76,3.58-3.66,0-1.69-.84-2.67-3.15-3.71-1.32-.59-1.8-.96-1.8-1.39,0-.36.45-.75.98-.85.52-.1,1.89.14,2.7.47l.68.27v-3l-.74-.16c-.46-.1-1.41-.16-2.5-.16-1.55,0-1.85.04-2.43.27-1.7.68-2.51,1.83-2.5,3.56.01,1.62.87,2.63,2.99,3.54,1.25.54,1.76.94,1.76,1.43,0,1.03-1.71,1.15-3.52.26-.5-.24-.94-.46-.99-.49s-.09.68-.09,1.56c0,1.6,0,1.6.29,1.71,1.09.41,3.49.6,4.73.36Zm26.08-1.48v-1.36h-4.12v-9.31h-3.65v12.02h7.78v-1.36h0Zm-12.73-23.75c3.63-.25,6.35-.73,8.74-1.53,2.39-.8,3.79-1.76,4.11-2.81.12-.41.11-.56-.06-1-.76-1.99-5.01-3.52-11.51-4.14-2.78-.27-7.83-.18-10.48.18-4.04.55-7.32,1.56-8.78,2.72-2.95,2.34.17,4.91,7.43,6.12,3.15.52,7.22.71,10.55.48h0Z"/>
  </g>
</svg>