<?xml version="1.0" encoding="UTF-8"?>
<svg id="Calque_2" data-name="Calque 2" xmlns="http://www.w3.org/2000/svg" xmlns:xlink="http://www.w3.org/1999/xlink" viewBox="0 0 60 48.51">
  <defs>
    <style>
      .cls-1 {
        fill: url(#Dégradé_sans_nom_2);
      }

      .cls-2 {
        fill: #231f1f;
      }

      .cls-3 {
        fill: url(#Dégradé_sans_nom_3);
      }

      .cls-4 {
        fill: url(#Dégradé_sans_nom_4);
      }
    </style>
    <linearGradient id="Dégradé_sans_nom_4" data-name="Dégradé sans nom 4" x1="-4264.79" y1="-4357.79" x2="-4201.74" y2="-4395.05" gradientTransform="translate(188.64 195.41) scale(.04)" gradientUnits="userSpaceOnUse">
      <stop offset="0" stop-color="#909ca9"/>
      <stop offset="1" stop-color="#ededee"/>
    </linearGradient>
    <linearGradient id="Dégradé_sans_nom_2" data-name="Dégradé sans nom 2" x1="-4263.38" y1="-5059.98" x2="-4212.65" y2="-5059.98" gradientTransform="translate(188.64 195.41) scale(.04)" gradientUnits="userSpaceOnUse">
      <stop offset="0" stop-color="#939fab"/>
      <stop offset="1" stop-color="#dcdee1"/>
    </linearGradient>
    <radialGradient id="Dégradé_sans_nom_3" data-name="Dégradé sans nom 3" cx="-9953.58" cy="-8743.63" fx="-9953.58" fy="-8743.63" r="67.36" gradientTransform="translate(-229.93 -680.72) rotate(-171.46) scale(.04 .07) skewX(-.19)" gradientUnits="userSpaceOnUse">
      <stop offset="0" stop-color="#ee352c"/>
      <stop offset="1" stop-color="#a91d22"/>
    </radialGradient>
  </defs>
  <g id="Calque_3" data-name="Calque 3">
    <g>
      <g>
        <path class="cls-4" d="m40.68,15.45l-6.63,2.16-5.76,2.54-1.61.43c-.41.39-.84.79-1.31,1.19-.51.44-.99.84-1.35,1.13-.41.32-1.01.92-1.31,1.3-.46.57-.82,1.18-.97,1.64-.28.84-.14,1.69.39,2.48.68,1,2.04,2.02,3.62,2.72.81.36,2.16.81,3.19,1.07,1.7.43,4.98.9,6.79.97.37.02.86.02.88,0,.04-.03.32-.56.65-1.23,1.11-2.27,1.91-4.4,2.35-6.22.26-1.1.47-2.57.6-4.31.04-.49.05-2.11.02-2.66-.05-.9-.13-1.63-.25-2.35-.02-.11-.03-.2-.02-.21.02-.02.08-.04.9-.27l-.17-.39h0s0,0,0,0h0Zm-1.51.89c.06,0,.22,1.54.26,2.51.01.21,0,.34,0,.34-.04,0-.85-.48-1.42-.84-.5-.32-1.45-.95-1.6-1.07-.05-.04-.05-.04.37-.18.7-.24,2.35-.77,2.4-.77Zm-3.38,1.11s.16.07.44.24c1.03.65,2.43,1.43,3.04,1.69.19.08.21.05-.22.34-.91.62-2.05,1.23-3.44,1.85-.25.11-.45.2-.46.2,0,0,.02-.13.06-.28.34-1.25.53-2.51.54-3.52q0-.5.05-.52s0,0,0,0h0Zm-.7.27s0,1.15-.03,1.46c-.09.73-.23,1.41-.46,2.18-.06.19-.11.34-.12.35-.02.03-.71-.65-.93-.91-.39-.45-.7-.9-.92-1.34-.12-.23-.3-.67-.28-.68.08-.06,2.72-1.08,2.74-1.06h0Zm-3.28,1.29s0,0,.02,0c0,.01.05.09.08.18.16.44.52,1.08.83,1.49.34.45.79.93,1.16,1.25.12.1.23.2.25.21.03.03.04.03-.78.34-.95.36-1.98.72-3.16,1.1-.28.09-.56.18-.85.28-.05.02-.03-.01.1-.22.59-.92,1.48-2.71,1.98-3.99.09-.22.17-.44.19-.49.02-.07.05-.1.11-.13.04,0,.07-.02.09-.02h0Zm-1,.42s-.24.55-.49,1.04c-.49.95-1.02,1.88-1.73,3.01-.12.2-.24.38-.25.4-.03.04-.04.03-.12-.13-.17-.34-.31-.77-.39-1.16-.08-.39-.06-1.07.03-1.49.07-.31.06-.31.21-.38.64-.33,2.71-1.3,2.73-1.28h0Zm8.64.35v.21c0,1.12-.12,2.65-.3,3.77-.03.2-.06.36-.06.36,0,0-.15-.04-.32-.09-.75-.24-1.57-.58-2.3-.99-.49-.27-1.19-.7-1.17-.72,0,0,.22-.12.46-.25.98-.51,1.92-1.06,2.74-1.61.31-.21.77-.54.87-.63l.08-.06h0Zm-12.42,1.48s.02.04-.02.22c-.02.13-.05.37-.06.54-.04.73.08,1.27.44,2.01.1.21.18.38.18.38-.04.03-3.35,1-4.39,1.29-.31.09-.58.16-.6.17-.03.01-.04,0-.03-.08.12-.74.68-1.7,1.46-2.51.52-.54.94-.86,1.65-1.26.51-.29,1.3-.73,1.36-.75,0,0,0,0,.01,0h0Zm7.81,1.4s.13.06.27.15c1.07.62,2.56,1.2,3.84,1.49l.12.03-.16.09c-.67.37-2.85,1.28-5.09,2.12-.33.12-.65.24-.71.27-.06.03-.12.04-.12.04s.09-.18.21-.4c.63-1.17,1.26-2.6,1.58-3.59.04-.1.07-.18.07-.19h0Zm-.8.26s-.04.11-.09.23c-.44,1.06-1.01,2.21-1.74,3.5-.19.33-.34.6-.35.6s-.16-.09-.34-.2c-1.06-.65-2-1.45-2.62-2.23l-.09-.11.46-.13c1.63-.45,3.02-.93,4.4-1.52.2-.08.36-.15.36-.15Zm4.95,1.73s0,0,0,0c0,.12-.25,1.15-.46,1.89-.18.63-.33,1.12-.6,1.98-.12.38-.23.7-.23.7s-.04,0-.07-.01c-1.49-.27-2.82-.65-4.07-1.15-.35-.14-.85-.37-.88-.39,0-.01.29-.15.67-.32,2.28-1,4.64-2.13,5.45-2.61.1-.06.17-.09.19-.09h0Zm-11.42.39s-.63.93-1.52,2.17c-.31.44-.67.95-.81,1.14-.14.19-.34.49-.46.67l-.21.33-.23-.19c-.27-.22-.73-.69-.93-.95-.43-.54-.72-1.1-.84-1.62-.06-.24-.06-.36,0-.38.08-.02,1.41-.34,2.66-.63.7-.16,1.5-.35,1.79-.42.29-.07.53-.13.53-.13h0Zm.64.25l.16.18c.72.81,1.46,1.4,2.35,1.92.16.09.28.17.27.18-.03.03-3.1,1.11-4.51,1.6-.8.28-1.45.51-1.46.51s-.05-.03-.1-.07l-.09-.07.15-.21c.47-.68,1.06-1.43,2.35-2.98l.89-1.07h0Zm4,2.86s.23.08.5.18c.65.25,1.17.4,1.86.58.85.22,2.08.43,2.81.49.11,0,.17.02.15.04-.04.02-.77.27-1.31.44-.86.27-3.49,1.05-5.63,1.66-.4.12-.74.21-.76.22-.05.01-.22-.04-.22-.06,0,0,.12-.17.27-.34.72-.86,1.44-1.82,2.03-2.73.17-.25.31-.46.31-.46h0Zm-.88.03s-.35.58-.97,1.56c-.27.42-.56.89-.67,1.05-.1.16-.25.41-.34.55l-.15.26-.08-.02c-.18-.05-1.45-.5-1.78-.63-.42-.17-.85-.37-1.17-.54-.4-.22-.9-.54-.86-.55.01,0,.7-.19,1.52-.42,2.19-.6,3.41-.94,4.21-1.19.15-.05.27-.08.28-.08h0Zm6.24,1.46h0c.02.05-.79,2.3-1.09,3.02-.07.16-.09.2-.13.2-.09,0-1.26-.17-1.98-.28-1.25-.19-3.34-.56-3.87-.68l-.12-.03.75-.17c1.6-.36,2.37-.56,3.16-.8.99-.3,1.96-.68,2.95-1.14.16-.07.29-.13.32-.13h0Z"/>
        <path class="cls-1" d="m33.85,0c-.11-.01-1.89.63-3.04,1.09-1.55.63-2.75,1.23-3.49,1.75-.28.2-.62.54-.68.68-.02.05-.03.11-.03.17l.67.64,1.6.51,3.8.68,4.35.75.05-.38s-.03,0-.04,0l-.57-.09-.12-.21c-.59-1.04-1.24-2.33-1.62-3.21-.3-.68-.58-1.46-.73-2.02-.09-.34-.1-.36-.15-.37h0s0,0,0,0h0Zm-.08.26h0s.02.15.05.31c.09.7.24,1.38.49,2.11.19.55.19.52-.03.46-.51-.14-2.8-.54-4.46-.77-.27-.04-.49-.07-.49-.08-.02-.02,1.2-.66,1.73-.91.69-.32,2.57-1.1,2.71-1.13Zm-4.83,2.24l.2.07c1.06.36,3.73.87,5.2.99.17.02.31.03.31.03,0,0-.14.08-.32.17-.71.36-1.49.79-2.03,1.13-.16.1-.31.18-.33.18s-.13-.02-.24-.04l-.2-.03-.5-.49c-.88-.86-1.57-1.52-1.84-1.77l-.26-.24Zm-.2.16l.71.88c.39.49.78.96.86,1.07.09.11.16.19.15.2-.02.02-1.02-.18-1.55-.3-.55-.13-.77-.19-1.11-.29l-.28-.09v-.07c0-.34.43-.84,1.15-1.35,0,0,.07-.05.07-.05Zm6,1.2s.05.05.11.18c.17.38.7,1.39.83,1.58.04.07.11.07-.6-.05-1.7-.28-2.24-.37-2.24-.38,0,0,.05-.04.12-.08.53-.29,1.06-.66,1.53-1.06.12-.1.22-.19.24-.2,0-.01.02-.01.02-.01Z"/>
        <path class="cls-3" d="m26.68,3.45s-.11.18,0,.44c.07.16.26.36.47.56,0,0,2.23,2.17,2.5,2.48,1.23,1.42,1.77,2.82,1.82,4.76.03,1.24-.21,2.33-.79,3.6-1.04,2.27-3.24,4.78-6.63,7.57l.5-.17c.32-.24.76-.5,1.78-1.06,2.36-1.29,5.01-2.48,8.27-3.7,4.69-1.76,12.4-3.83,16.78-4.5l.46-.07-.07-.11c-.4-.62-.68-1.01-1.01-1.42-.96-1.19-2.13-2.16-3.56-2.96-1.96-1.1-4.5-1.95-7.72-2.59-.61-.12-1.94-.35-3.02-.52-2.29-.36-3.78-.6-5.41-.88-.59-.1-1.46-.25-2.04-.38-.3-.07-.88-.2-1.33-.36-.36-.14-.88-.28-.99-.71h0Zm1.29,1.25s.09.03.19.06c.19.07.44.14.73.22.22.06.44.12.66.18.3.08.55.15.56.15.04.04.54,1.65.71,2.27.07.24.12.44.11.44,0,0-.06-.08-.13-.2-.59-1.03-1.51-2.08-2.58-2.92-.14-.1-.25-.19-.25-.2Zm2.46.68s.14.02.27.05c.85.19,2.38.48,3.36.65.17.03.3.06.3.07s-.06.05-.14.09c-.17.09-.83.48-1.05.63-.56.37-1.06.77-1.42,1.13-.15.15-.27.27-.27.27,0,0-.03-.09-.06-.19-.18-.7-.56-1.73-.9-2.45-.06-.12-.1-.22-.1-.23,0,.01,0,0,0,0h0Zm4.34.83s.08.18.18.56c.19.73.27,1.54.24,2.29-.01.21-.02.41-.03.43v.05s-.28-.09-.28-.09c-.54-.17-1.41-.43-2.15-.64-.43-.12-.77-.22-.77-.23,0-.03.62-.65.89-.89.51-.45,1.88-1.51,1.92-1.49h0Zm.35.05s2.07.34,3.01.52c.7.14,1.71.35,1.77.37.03,0-.08.07-.41.22-1.32.6-2.3,1.13-3.28,1.78-.26.17-.47.31-.48.31s-.01-.15-.01-.32c0-.95-.19-1.91-.54-2.72-.04-.08-.07-.16-.06-.16Zm5.32,1.05s-.05.42-.11.66c-.18.75-.67,1.85-1.26,2.89-.11.19-.2.34-.21.34,0,0-.15-.07-.3-.16-.58-.34-1.24-.66-1.96-.96-.2-.09-.38-.16-.38-.17-.04-.03,1.58-1.1,2.43-1.61.68-.41,1.78-1.02,1.8-1Zm.38.06s.96.25,1.43.39c1.18.35,2.53.85,3.41,1.25l.37.17-.26.06c-2.15.5-4,1.07-5.77,1.79-.15.06-.28.11-.29.11s.04-.12.11-.26c.54-1.14.88-2.32.97-3.34,0-.1.02-.17.04-.17h0Zm-9.08,2.08s.71.15,1.09.26c.57.16,1.78.57,1.78.6,0,0-.14.12-.3.26-.66.55-1.29,1.12-2.04,1.85-.23.22-.42.39-.43.39s-.01-.03-.01-.07c.12-.84.09-1.92-.07-3.02-.02-.14-.03-.26-.03-.27Zm14.63.02s-.32.53-.53.83c-.3.43-.74,1-1.74,2.25-.53.66-1.12,1.41-1.31,1.66-.2.25-.37.46-.37.46s-.07-.09-.14-.2c-.56-.84-1.23-1.58-2.03-2.24-.15-.13-.32-.26-.37-.3-.06-.04-.1-.08-.1-.09,0-.01.85-.38,1.5-.64,1.13-.46,2.67-1.01,3.83-1.37.61-.19,1.25-.38,1.26-.37h0Zm.39.1s.14.06.29.14c1.22.7,2.41,1.59,3.35,2.51.27.26.92.94.91.95,0,0-.23.02-.5.04-2.11.16-4.81.61-7.4,1.23-.18.04-.33.08-.34.08s.19-.2.43-.43c1.52-1.47,2.22-2.39,3.04-4.05.12-.25.22-.46.23-.47t0,0h0Zm-11.15,1.14c.07.01.72.32,1.21.57.45.23,1.13.59,1.16.62,0,0-.24.13-.53.28-.94.47-1.75.92-2.59,1.43-.24.15-.44.27-.45.27-.02,0-.02-.02.12-.27.45-.82.81-1.8,1.02-2.76.02-.08.04-.13.06-.13h0Zm-.65.12s-.16.63-.26.97c-.21.64-.55,1.43-.89,2.03-.08.14-.2.35-.27.46l-.13.2-.28-.27c-.33-.32-.59-.51-.93-.69-.14-.07-.24-.13-.24-.14,0-.04.86-.82,1.51-1.38.47-.41,1.46-1.2,1.48-1.19h0Zm3.98,1.64l.25.16c.56.37,1.22.85,1.73,1.28.29.24.84.73.95.85l.06.07-.41.12c-2.29.64-4.07,1.2-6.14,1.96-.23.09-.43.16-.44.16-.03,0-.06.03.46-.45,1.32-1.22,2.49-2.56,3.37-3.87l.18-.27h0Zm-1.05.26s-.68.98-1.09,1.52c-.49.65-1.36,1.74-1.96,2.45-.25.3-.47.54-.48.55-.02,0-.02-.07-.02-.19,0-.61-.16-1.25-.43-1.8-.12-.23-.14-.29-.11-.31.1-.09,1.55-.92,2.47-1.41.62-.33,1.59-.82,1.61-.81h0Zm-6.33,1.55s.13.06.26.13c.32.18.61.37.86.58,0,0-.12.12-.29.24-.48.34-1.2.89-1.62,1.22-.44.35-.46.36-.41.29.33-.51.5-.79.67-1.16.16-.33.31-.71.42-1.05.04-.15.09-.26.1-.26h0Zm1.69,1.32s.06.04.19.24c.29.43.51,1,.56,1.46v.1s-.68.27-.68.27c-1.23.48-2.36.95-3.13,1.3-.22.1-.59.28-.84.4-.25.13-.45.22-.45.22s.16-.12.35-.26c1.5-1.09,2.79-2.28,3.77-3.47.11-.13.2-.24.21-.25h.01s0,0,0,0Zm-.78.19s-.55.67-.94,1.06c-.97.99-1.92,1.76-3.11,2.51-.15.1-.29.18-.3.19-.04.02,0-.03.53-.6.33-.36.58-.66.87-1.03.19-.25.23-.28.5-.48.74-.53,2.43-1.68,2.45-1.66Z"/>
      </g>
      <path class="cls-2" d="m10.79,36.54c-.09,0-.18,0-.28,0-1.87.1-3.12.92-3.86,2.52-.63,1.45-.56,3.35,0,4.81.66,1.43,1.73,2.18,3.51,2.46.38.06.63.27,1.36,1.12l.9,1.05h1.63l-1.08-1.09c-.6-.6-1.08-1.12-1.08-1.17s.23-.15.51-.23c.91-.28,1.67-.98,2.2-2.06.43-.87.49-1.14.55-2.22.16-3.22-1.54-5.23-4.36-5.21h0Zm1.43,8.41c-.79.38-1.94.46-2.69.18-.78-.29-1.53-1.09-1.87-2-.38-1-.32-2.84.11-3.67.69-1.32,1.6-1.93,2.94-1.93,1.98,0,3.11,1.21,3.25,3.49.12,1.9-.52,3.33-1.74,3.92h0Zm28.13-5.67c-.68,0-1.21.28-1.56.82l-.28.43v-1.12h-1.18v6.72h1.18v-2.15c0-1.97.02-2.2.3-2.73.38-.74,1.03-1.11,1.66-.93l.42.12v-1.17h-.55Zm-6.94-.06c-.23,0-.48.03-.72.08-1.58.41-2.47,1.93-2.42,3.49,0,1.3.25,1.96.88,2.64,1.29,1.06,2.46,1.14,4.03.57.27-.11.56-.25.56-.25v-1.06l-.56.29c-1.27.55-2.23.55-3-.1-.49-.5-.71-1.1-.81-1.78h4.77v-.91c0-1.85-1.11-3.02-2.73-2.99h0,0Zm-1.93,2.95s.18-1.15.83-1.61c.31-.22.68-.33,1.03-.33s.71.11,1,.34c.6.46.7,1.59.7,1.59h-3.55s0,0,0,0h0Zm-28.5-1.21c-1.28-.78-1.85-1.34-1.78-2,.2-1.83,2.46-1.57,3.71-.88v-1.23s-.68-.3-1.67-.32c-1.52-.02-2.5.48-2.96,1.49-.68,1.5-.08,2.62,2.09,3.88,1.21.71,1.75,1.32,1.75,1.99,0,1.38-1.67,1.86-3.39,1-.35-.18-.65-.32-.67-.32-.06.39-.03,1.33-.03,1.33,0,0,.53.22,1.32.37,1.96.39,3.75-.53,3.92-2.03.15-1.4-.36-2.14-2.29-3.29,0,0,0,0,0,0Zm47.83-1.75c-.23,0-.48.03-.73.09-1.58.41-2.47,1.93-2.41,3.49,0,1.3.25,1.95.88,2.63,1.29,1.06,2.46,1.14,4.04.58.27-.11.56-.24.56-.24v-1.06l-.56.29c-1.28.55-2.24.55-3-.1-.49-.5-.71-1.09-.81-1.78h4.76v-.91c0-1.84-1.11-3.01-2.73-2.98h0s0,0,0,0Zm-1.93,2.95s.18-1.15.83-1.61c.31-.22.67-.33,1.03-.33s.71.11,1,.34c.6.46.7,1.6.7,1.6h-3.55s0,0,0,0Zm-21.67-1.18c-1.28-.77-1.85-1.34-1.78-2,.2-1.83,2.46-1.57,3.71-.88v-1.23s-.68-.3-1.67-.31c-1.52-.02-2.5.48-2.96,1.49-.68,1.5-.07,2.62,2.09,3.88,1.21.71,1.75,1.31,1.75,1.98,0,1.38-1.67,1.87-3.38,1-.35-.18-.65-.32-.67-.32-.06.39-.03,1.33-.03,1.33,0,0,.52.21,1.31.37,1.97.39,3.75-.53,3.92-2.02.15-1.4-.36-2.13-2.28-3.29h0s0,0,0,0Zm30.54-1.7c-.68,0-1.21.28-1.56.82l-.28.43v-1.12h-1.18v6.72h1.18v-2.15c0-1.96.02-2.2.3-2.73.38-.74,1.03-1.11,1.66-.93l.42.12v-1.17h-.55,0Zm-39.94,1.67v-4.28h-1.19v9.49h5.01v-1.12h-3.82v-4.08h0Zm27.56,1.34l-.98,2.56-.94-2.57-.96-2.85h-1.22c.79,2.24,1.65,4.52,2.52,6.73.38,0,.75,0,1.13,0l1.33-3.33,1.35-3.4h-1.17s-.52,1.35-1.05,2.86h0s0,0,0,0Zm-24.81-8.2c.19,0,.35-.06.48-.19.13-.13.2-.28.2-.48s-.07-.35-.2-.48c-.13-.12-.28-.18-.48-.18s-.35.06-.48.19c-.13.13-.19.29-.19.48s.06.35.19.48c.12.12.28.18.48.18h0s0,0,0,0Zm-.42-1.09c.11-.11.25-.17.43-.17.17,0,.31.05.42.17.11.11.18.25.18.42s-.06.32-.18.43c-.12.11-.26.17-.42.17s-.31-.05-.42-.17c-.11-.11-.18-.26-.18-.43s.05-.31.17-.42Zm.28.48h.08c.05,0,.11.05.15.15l.09.21h.15l-.11-.23c-.05-.09-.09-.15-.15-.16.07-.02.12-.04.16-.08.04-.04.05-.09.05-.15,0-.07-.02-.12-.07-.16-.05-.04-.14-.07-.25-.07h-.24v.86h.12v-.36h.01s0,0,0,0Zm0-.4h.11c.08,0,.13.02.16.04.03.02.04.05.04.11,0,.1-.06.15-.18.15h-.13v-.29h0Zm-19.69.32c0-.3,0-.52-.02-.65h0c.03.15.07.27.1.35l1.14,2.56h.19l1.14-2.58c.03-.07.06-.18.1-.32h0c-.02.26-.03.48-.03.65v2.26h.39v-3.35h-.49l-1.05,2.33c-.04.09-.09.23-.16.41h-.02c-.02-.09-.08-.23-.15-.4l-1.03-2.36H.35v3.35h.38v-2.25s0,0,0,0Zm3.9,0h.34v2.09h-.34v-2.09Zm.17-.77c.07,0,.13-.02.18-.07.05-.05.08-.11.08-.18s-.02-.13-.08-.18c-.05-.05-.11-.07-.18-.07s-.13.02-.18.07c-.05.05-.08.11-.08.18,0,.08.02.13.08.18.05.05.11.07.18.07,0,0,0,0,0,0Zm2.58,2.9v-.37c-.18.14-.38.21-.59.21-.25,0-.45-.08-.59-.25-.15-.16-.22-.38-.22-.66s.08-.52.24-.7c.15-.17.35-.25.6-.25.2,0,.39.06.57.18v-.39c-.16-.08-.35-.12-.55-.12-.38,0-.68.12-.91.36-.22.24-.34.56-.34.95,0,.35.1.64.31.86.22.23.49.35.83.35.26,0,.48-.06.66-.17Zm.97-1.11c0-.28.06-.5.18-.65.11-.14.24-.21.39-.21.13,0,.22.02.29.08v-.4c-.05-.02-.13-.03-.23-.03-.14,0-.26.05-.37.13-.11.09-.21.23-.26.4h0v-.49h-.38v2.39h.38v-1.23h0Zm2.2,1.28c.36,0,.65-.12.87-.35.21-.23.32-.54.32-.92s-.1-.69-.3-.91c-.2-.22-.48-.33-.84-.33s-.65.11-.87.32c-.23.23-.35.55-.35.97,0,.36.1.66.31.88.21.23.5.35.86.35h0s0,0,0,0Zm-.55-1.95c.15-.15.34-.23.58-.23s.43.08.57.23c.14.16.21.39.21.7s-.06.52-.19.68c-.13.16-.32.25-.58.25s-.44-.09-.58-.25c-.15-.16-.21-.38-.21-.68-.01-.29.06-.53.21-.7Zm3.42,1.74c.15-.13.22-.29.22-.49,0-.18-.06-.32-.18-.44-.09-.09-.24-.18-.45-.26-.18-.08-.3-.15-.36-.2-.06-.06-.1-.14-.1-.25,0-.1.04-.18.11-.24.08-.06.18-.09.31-.09.21,0,.38.05.55.17v-.38c-.15-.08-.32-.11-.51-.11-.25,0-.45.07-.61.2-.16.13-.24.3-.24.5,0,.18.05.32.15.43.08.09.23.18.43.27.19.08.32.16.39.22.07.06.1.14.1.23,0,.22-.15.34-.45.34-.23,0-.44-.08-.62-.23v.41c.17.1.37.15.59.15.28-.01.51-.08.66-.22h0Zm1.83-2.3c-.36,0-.65.11-.87.32-.23.23-.35.55-.35.97,0,.36.1.66.31.88.22.23.5.35.86.35s.65-.12.87-.35c.22-.23.32-.54.32-.92s-.1-.69-.3-.91c-.21-.22-.48-.33-.84-.33h0s0,0,0,0Zm.74,1.26c0,.29-.06.52-.19.68-.13.16-.32.25-.58.25s-.44-.09-.58-.25c-.15-.16-.21-.38-.21-.68,0-.31.08-.55.23-.71.15-.15.34-.23.58-.23s.43.08.57.23c.12.17.19.4.19.71h0,0Zm1.04,1.2h.38v-2.07h.56v-.32h-.56v-.37c0-.34.13-.51.4-.51.09,0,.18.02.25.06v-.35c-.07-.03-.16-.04-.28-.04-.21,0-.38.06-.51.19-.16.15-.25.35-.25.62v.39h-.41v.32h.41v2.07h0Zm1.57-.65c0,.47.21.71.63.71.15,0,.27-.02.36-.08v-.33c-.07.05-.15.08-.25.08-.13,0-.22-.03-.28-.1-.05-.07-.09-.18-.09-.35v-1.35h.61v-.32h-.61v-.71c-.13.05-.26.08-.38.12v.58h-.41v.32h.41v1.42h0Zm41.19,4.41c-.13-.12-.28-.18-.48-.18s-.35.06-.48.19c-.13.13-.19.29-.19.48s.06.35.19.48c.13.12.29.18.48.18s.35-.06.48-.19c.13-.13.2-.28.2-.48,0-.19-.08-.35-.21-.48h0Zm-.06.91c-.11.11-.25.17-.42.17s-.31-.05-.42-.17c-.11-.12-.18-.26-.18-.43s.05-.31.17-.42c.11-.11.25-.17.43-.17.17,0,.31.05.42.17.11.12.18.26.18.42,0,.18-.05.32-.18.43Zm-.35-.39c.07-.02.12-.05.16-.08.04-.04.05-.09.05-.15,0-.07-.02-.12-.07-.16-.05-.04-.14-.07-.25-.07h-.24v.86h.12v-.36h.08c.05,0,.11.05.15.15l.09.21h.15l-.11-.23c-.04-.1-.09-.15-.13-.16h0s0,0,0,0Zm-.08-.08h-.13v-.29h.11c.08,0,.13.01.16.04.03.02.04.05.04.11,0,.1-.06.15-.18.15h0s0,0,0,0Zm-21.41-6.69h.11v-.86h.28v-.11h-.68v.11h.28v.86h0Zm.65-.65c0-.08,0-.15,0-.19,0,.05.02.08.03.1l.33.74h.05l.33-.74s.02-.05.03-.09c0,.08,0,.14,0,.18v.65h.11v-.97h-.14l-.3.67s-.03.07-.05.12h0s-.02-.06-.04-.11l-.3-.68h-.15v.97h.11v-.65h0s0,0,0,0Z"/>
    </g>
  </g>
</svg>