<?xml version="1.0" encoding="UTF-8"?>
<svg id="Calque_2" data-name="Calque 2" xmlns="http://www.w3.org/2000/svg" viewBox="0 0 45.72 60">
  <defs>
    <style>
      .cls-1 {
        fill: #2f2239;
      }
    </style>
  </defs>
  <g id="Calque_35" data-name="Calque 35">
    <path class="cls-1" d="m38.87,0h-12.02c-.63,0-1.13.51-1.13,1.14v6.57c0,.57.43,1.04.99,1.12,3.04.41,5.99,1.31,8.74,2.66.4.2.88.15,1.22-.14l2.93-2.44c.25-.21.4-.53.4-.87V1.14c0-.63-.51-1.14-1.13-1.14Zm-20,0H6.85c-.62,0-1.13.51-1.13,1.14v6.9c0,.34.15.66.41.87l2.92,2.44c.34.29.82.34,1.22.14,2.75-1.35,5.7-2.25,8.74-2.66.56-.08.99-.55.99-1.12V1.13c0-.62-.5-1.13-1.13-1.13Z"/>
    <path class="cls-1" d="m22.86,14.29C10.24,14.29,0,24.52,0,37.14s10.24,22.86,22.86,22.86,22.86-10.23,22.86-22.86-10.24-22.85-22.86-22.85Zm10.58,20.48l-4.04,3.94c-.27.26-.39.64-.33,1.01l.96,5.56c.16.93-.81,1.63-1.65,1.2l-4.99-2.63c-.33-.17-.73-.17-1.06,0l-5,2.63c-.83.43-1.8-.27-1.64-1.2l.96-5.56c.06-.37-.06-.75-.33-1.01l-4.04-3.94c-.68-.65-.31-1.8.62-1.93l5.59-.81c.37-.06.69-.29.85-.62l2.5-5.07c.42-.84,1.62-.84,2.04,0l2.5,5.07c.16.33.48.57.85.62l5.59.81c.93.14,1.3,1.28.62,1.93Z"/>
  </g>
</svg>