<?xml version="1.0" encoding="UTF-8"?>
<svg id="Calque_2" data-name="Calque 2" xmlns="http://www.w3.org/2000/svg" viewBox="0 0 48.45 57.96">
  <defs>
    <style>
      .cls-1 {
        fill: #fdfaff;
      }
    </style>
  </defs>
  <g id="Calque_8" data-name="Calque 8">
    <path class="cls-1" d="m19.77,19.89v33.23c0,1.09.89,1.97,1.97,1.97.56,0,1.11-.24,1.49-.67l7.4-8.47,5.21,10.42c.71,1.42,2.43,1.99,3.84,1.28s1.99-2.43,1.28-3.84l-5.08-10.19h10.58c1.09,0,1.98-.89,1.98-1.98,0-.56-.24-1.1-.66-1.48l-24.56-21.82c-.39-.34-.87-.53-1.38-.53-1.15,0-2.08.93-2.08,2.08Z"/>
    <rect class="cls-1" x="11.18" y=".03" width="6.24" height="15.23" rx="3.12" ry="3.12" transform="translate(-1.92 7.52) rotate(-27.71)"/>
    <rect class="cls-1" x="24.93" y="-.15" width="6.24" height="15.23" rx="3.12" ry="3.12" transform="translate(2.89 -7.01) rotate(15)"/>
    <rect class="cls-1" x="4.34" y="10.51" width="6.24" height="15.23" rx="3.12" ry="3.12" transform="translate(-11.97 20.64) rotate(-75)"/>
  </g>
</svg>