<?xml version="1.0" encoding="UTF-8"?>
<svg id="Calque_2" data-name="Calque 2" xmlns="http://www.w3.org/2000/svg" viewBox="0 0 47.43 47.43">
  <defs>
    <style>
      .cls-1 {
        fill: #fefcff;
      }
    </style>
  </defs>
  <g id="cross-icon">
    <path class="cls-1" d="m46.69,39.62c.98.98.98,2.56,0,3.54l-3.53,3.53c-.98.98-2.56.98-3.54,0l-15.91-15.91-15.91,15.91c-.98.98-2.56.98-3.54,0l-3.53-3.53c-.98-.98-.98-2.56,0-3.54l15.91-15.91L.74,7.8c-.98-.98-.98-2.56,0-3.54L4.26.73c.98-.98,2.56-.98,3.54,0l15.91,15.91L39.62.73c.98-.98,2.56-.98,3.54,0l3.53,3.53c.98.98.98,2.56,0,3.54l-15.91,15.91,15.91,15.91Z"/>
  </g>
</svg>