<?xml version="1.0" encoding="UTF-8"?>
<svg id="Calque_2" data-name="Calque 2" xmlns="http://www.w3.org/2000/svg" viewBox="0 0 60 46.45">
  <defs>
    <style>
      .cls-1 {
        fill: #fdfaff;
      }
    </style>
  </defs>
  <g id="Calque_22" data-name="Calque 22">
    <path class="cls-1" d="m50.83,3.89c-3.88-1.82-8.04-3.14-12.38-3.89-.53.96-1.16,2.26-1.59,3.29-4.62-.69-9.19-.69-13.72,0-.43-1.03-1.07-2.33-1.6-3.29-4.35.75-8.5,2.08-12.39,3.9C1.32,15.74-.81,27.28.25,38.66c5.2,3.88,10.23,6.24,15.18,7.78,1.22-1.68,2.31-3.47,3.25-5.36-1.79-.68-3.5-1.52-5.12-2.49.43-.32.85-.65,1.26-.99,9.87,4.62,20.6,4.62,30.35,0,.41.34.83.67,1.26.99-1.62.98-3.34,1.82-5.13,2.5.94,1.88,2.02,3.67,3.25,5.35,4.96-1.54,10-3.9,15.19-7.78,1.25-13.19-2.13-24.63-8.92-34.77Zm-30.79,27.77c-2.96,0-5.39-2.77-5.39-6.14s2.38-6.14,5.39-6.14,5.45,2.77,5.39,6.14c0,3.37-2.38,6.14-5.39,6.14Zm19.93,0c-2.96,0-5.39-2.77-5.39-6.14s2.38-6.14,5.39-6.14,5.45,2.77,5.39,6.14c0,3.37-2.38,6.14-5.39,6.14Z"/>
  </g>
</svg>