<?xml version="1.0" encoding="UTF-8"?>
<svg id="Calque_2" data-name="Calque 2" xmlns="http://www.w3.org/2000/svg" viewBox="0 0 60 59">
  <defs>
    <style>
      .cls-1 {
        fill: #fdfaff;
        fill-rule: evenodd;
      }
    </style>
  </defs>
  <g id="Calque_5" data-name="Calque 5">
    <path class="cls-1" d="m30.02,0C13.42,0,0,13.52,0,30.25c0,13.37,8.6,24.69,20.53,28.69,1.49.3,2.04-.65,2.04-1.45,0-.7-.05-3.1-.05-5.61-8.35,1.8-10.09-3.61-10.09-3.61-1.34-3.51-3.33-4.41-3.33-4.41-2.73-1.85.2-1.85.2-1.85,3.03.2,4.62,3.1,4.62,3.1,2.68,4.61,7.01,3.31,8.75,2.5.25-1.95,1.04-3.31,1.89-4.06-6.66-.7-13.67-3.31-13.67-14.92,0-3.31,1.19-6.01,3.08-8.11-.3-.75-1.34-3.86.3-8.01,0,0,2.54-.8,8.25,3.1,2.45-.66,4.97-1,7.51-1,2.54,0,5.12.35,7.51,1,5.72-3.91,8.25-3.1,8.25-3.1,1.64,4.16.6,7.26.3,8.01,1.94,2.1,3.08,4.81,3.08,8.11,0,11.62-7.01,14.17-13.72,14.92,1.09.95,2.04,2.75,2.04,5.61,0,4.06-.05,7.31-.05,8.31,0,.8.55,1.75,2.04,1.45,11.93-4.01,20.53-15.32,20.53-28.7.05-16.73-13.42-30.25-29.98-30.25Z"/>
  </g>
</svg>