<?xml version="1.0" encoding="UTF-8"?>
<svg id="Calque_2" data-name="Calque 2" xmlns="http://www.w3.org/2000/svg" viewBox="0 0 60 54.37">
  <defs>
    <style>
      .cls-1 {
        fill: #fdfaff;
        fill-rule: evenodd;
      }
    </style>
  </defs>
  <g id="Calque_24" data-name="Calque 24">
    <path class="cls-1" d="m32.81,2.81v4.69h3.69c1.14,0,2.26.3,3.25.87l4.84,2.76c.14.08.3.12.47.12h8.38c1.55,0,2.81,1.26,2.81,2.81s-1.26,2.81-2.81,2.81h-1.6l7.92,17.6c.48,1.07.25,2.32-.58,3.14l-1.99-1.99,1.98,1.99h0s0,.01,0,.01l-.02.02-.02.02-.04.04-.17.15c-.79.66-1.65,1.23-2.57,1.69-1.75.88-4.29,1.7-7.59,1.7-2.63.03-5.22-.55-7.59-1.7-.92-.46-1.78-1.03-2.57-1.69l-.17-.15-.06-.06-.02-.02h-.01v-.02c-.83-.83-1.06-2.08-.58-3.14l7.92-17.6h-.61c-1.14,0-2.27-.3-3.26-.87l-4.84-2.76c-.14-.08-.3-.12-.47-.12h-3.69v35.63h9.38c1.55,0,2.81,1.26,2.81,2.81s-1.26,2.81-2.81,2.81h-24.38c-1.55,0-2.81-1.26-2.81-2.81s1.26-2.81,2.81-2.81h9.38V13.12h-3.69c-.16,0-.32.04-.47.12l-4.83,2.76c-.99.56-2.12.86-3.26.86h-.61l7.92,17.6c.48,1.07.25,2.32-.58,3.14l-1.99-1.99,1.98,1.99h0s0,.01,0,.01l-.02.02-.06.06-.17.15c-.79.66-1.65,1.23-2.57,1.69-1.75.88-4.29,1.7-7.59,1.7-2.63.03-5.22-.55-7.59-1.7-.92-.46-1.78-1.03-2.57-1.69l-.17-.15-.06-.06-.02-.02h-.02v-.02c-.83-.83-1.06-2.08-.58-3.14l7.92-17.6h-1.61c-1.55,0-2.81-1.26-2.81-2.81s1.26-2.81,2.81-2.81h8.38c.16,0,.33-.04.47-.12l4.83-2.76c.99-.56,2.12-.86,3.26-.86h3.69V2.81C27.19,1.26,28.45,0,30,0c1.55,0,2.81,1.26,2.81,2.81Zm11.04,31.79c1.07.51,2.69,1.02,4.89,1.02s3.83-.52,4.89-1.02l-4.89-10.88-4.89,10.88Zm-37.5,0c1.07.51,2.69,1.02,4.89,1.02s3.83-.52,4.89-1.02l-4.89-10.88-4.89,10.88Z"/>
  </g>
</svg>